<svg width="16" height="16" viewBox="0 0 16 16" fill="none" xmlns="http://www.w3.org/2000/svg">
<g id="up_opt4">
<rect width="16" height="16" rx="8" fill="white"/>
<g id="Group 4631">
<path id="Vector 8 (Stroke)" fill-rule="evenodd" clip-rule="evenodd" d="M13.7677 4.93326C14.0914 5.25704 14.0914 5.78199 13.7677 6.10577L8.93132 10.9421C8.60754 11.2659 8.0826 11.2659 7.75882 10.9421L5.58146 8.76473L2.71319 11.633C2.38941 11.9568 1.86446 11.9568 1.54068 11.633C1.21691 11.3092 1.21691 10.7843 1.54068 10.4605L4.9952 7.00597C5.31898 6.6822 5.84393 6.6822 6.16771 7.00597L8.34507 9.18334L12.5951 4.93326C12.9189 4.60949 13.4439 4.60949 13.7677 4.93326Z" fill="#1DB025"/>
<path id="Vector 9 (Stroke)" fill-rule="evenodd" clip-rule="evenodd" d="M9.58887 4.82908C9.58887 4.37119 9.96006 4 10.418 4H13.8725C14.3304 4 14.7016 4.37119 14.7016 4.82908V8.2836C14.7016 8.74149 14.3304 9.11269 13.8725 9.11269C13.4146 9.11269 13.0434 8.74149 13.0434 8.2836V5.65817H10.418C9.96006 5.65817 9.58887 5.28698 9.58887 4.82908Z" fill="#1DB025"/>
</g>
</g>
</svg>
